<svg id="Layer_1" data-name="Layer 1" xmlns="http://www.w3.org/2000/svg" viewBox="0 0 2279.41 737.75">
  <title>Direct Debit Logo</title>
  <path d="M1072.31,154.88h118.22s117.05-2.36,115.87,104c-1.17,79.22-113.49,91-113.49,91H1072.33V154.88h0ZM1426,536.78c3.32,15.47,14.51,32.53,51.85,34.28,49.65,1.17,78-17.76,78-17.76V590s-54.38,13-80.4,13c-27.18,0-107.58-5.93-107.58-80.4,0-60.28,66.21-79.21,104-79.21,66.21,2.36,98.13,26,96.95,93.4,0,1-108.93.25-142.87,0Zm.16-29.58h90.71s0-34.28-43.75-34.28C1440.2,472.92,1429.44,490.66,1426.14,507.2Zm287-37c13.13-14.24,35.16-25.64,72.12-25.64,73.31,0,85.13,61.48,84,78s-7.09,79.21-92.2,79.21c-32.15,0-51.83-11-63.86-24.59V597h-57.94V384.23h57.94v86h0Zm49.67,98.49c34.28-1.19,49.65-30.73,49.65-44.91s-8.29-43.75-52-43.75c-33.94,0-44.28,25.64-47.29,38.17V533.6c3,12.78,13.37,35.07,49.67,35.07Zm500.1-5.9,1.17,33.11s-27.18,5.9-44.91,5.9-63.86-10.64-63.86-55.58V477.64h-48.45V446.91h48.45V410.26h59.13v36.65h48.48v30.73h-48.48v59.13s0,29.56,23.66,29.56,24.82-3.55,24.82-3.55Zm-179.71-376h68.57V351.13h57.91V186.8h69.76V152.51H2083.16Zm-23.66,8.27,7.09-34.29s-29.56-13-81.57-13c-50.84,0-132.41,28.38-132.41,105.22,0,75.67,86.3,101.67,139.5,101.67s70.93-8.27,70.93-8.27l-5.9-37.83s-23.66,7.09-63.86,7.09c-39-1.18-79.18-31.92-79.18-66.2,1.17-30.74,36.63-65,82.76-65,35.45,0,62.63,10.64,62.63,10.64ZM1536.94,153.7s96.95-4.72,96.95,52c0,48.48-55.55,52-55.55,52s15.36,2.36,22.46,13c5.9,9.45,44.91,80.4,44.91,80.4h-59.13s-9.46-11.83-14.19-20.09c-3.54-8.27-14.19-26-14.19-26s-8.26-29.56-36.65-29.56c-.71,0-12.26-.44-21.28-.78v76.44h-56.74V153.7h93.41Zm-36.65,88.67H1531S1573.6,240,1576,214c1.19-24.82-41.36-28.38-41.36-28.38h-34.3v56.76Zm237.63,30.74h94.59V236.46h-94.59V191.54H1840.8V153.7H1680V351.14h162V315.67H1737.94V273.12h0Zm230.54,151.32h57.94V384.23h-57.94Zm0,172.61h57.94V446.91h-57.94Zm-631.3-245.91h56.74V153.7h-56.74V351.14ZM1072.31,400.8h118.22s117.05-2.39,115.87,104c-1.17,79.21-113.49,91-113.49,91H1072.33V400.8h0Zm57.94,158.43h37.83s78-4.73,78-65S1163.35,428,1163.35,428h-33.1Zm0-245.92h37.83s78-5.91,78-65c0-61.48-82.76-66.2-82.76-66.2h-33.1ZM541.47,272.42V668S312.1,626.61,312.1,469.38C312.12,344,481.9,288.69,541.47,272.42Zm0-7.38C403.62,255.06,91,319.68,91,461.09c0,92.2,165.52,227,435.07,230.54,10.64,0,316.84-11.83,312.12-340.5-4-276-210.58-324.4-276.65-332.82V1.49C825,18.21,1032.12,176.61,1032.12,368.86c0,203.35-231.73,368.86-516.65,368.86S0,572.2,0,368.86,230.54,0,515.47,0q13.09,0,26,.47V265h0Z"/>
</svg>
